<svg width="200" height="60" viewBox="0 0 200 60" fill="none" xmlns="http://www.w3.org/2000/svg">
  <!-- Background circle for logo mark -->
  <circle cx="30" cy="30" r="25" fill="white" stroke="#E5E7EB" stroke-width="2"/>
  
  <!-- Hotel building icon -->
  <rect x="20" y="20" width="4" height="16" fill="url(#gradient1)" rx="1"/>
  <rect x="26" y="18" width="4" height="18" fill="url(#gradient1)" rx="1"/>
  <rect x="32" y="16" width="4" height="20" fill="url(#gradient1)" rx="1"/>
  <rect x="38" y="20" width="4" height="16" fill="url(#gradient1)" rx="1"/>
  
  <!-- Windows -->
  <rect x="21" y="22" width="2" height="2" fill="white" rx="0.5"/>
  <rect x="21" y="26" width="2" height="2" fill="white" rx="0.5"/>
  <rect x="21" y="30" width="2" height="2" fill="white" rx="0.5"/>
  
  <rect x="27" y="20" width="2" height="2" fill="white" rx="0.5"/>
  <rect x="27" y="24" width="2" height="2" fill="white" rx="0.5"/>
  <rect x="27" y="28" width="2" height="2" fill="white" rx="0.5"/>
  
  <rect x="33" y="18" width="2" height="2" fill="white" rx="0.5"/>
  <rect x="33" y="22" width="2" height="2" fill="white" rx="0.5"/>
  <rect x="33" y="26" width="2" height="2" fill="white" rx="0.5"/>
  <rect x="33" y="30" width="2" height="2" fill="white" rx="0.5"/>
  
  <rect x="39" y="22" width="2" height="2" fill="white" rx="0.5"/>
  <rect x="39" y="26" width="2" height="2" fill="white" rx="0.5"/>
  <rect x="39" y="30" width="2" height="2" fill="white" rx="0.5"/>
  
  <!-- Star accent -->
  <path d="M30 10 L31 13 L34 13 L32 15 L33 18 L30 16 L27 18 L28 15 L26 13 L29 13 Z" fill="url(#gradient1)" opacity="0.9"/>
  
  <!-- Text -->
  <text x="65" y="25" font-family="system-ui, -apple-system, sans-serif" font-size="20" font-weight="700" fill="white">
    StayFinder
  </text>
  <text x="65" y="40" font-family="system-ui, -apple-system, sans-serif" font-size="10" font-weight="400" fill="white" opacity="0.7">
    Your Gateway to Perfect Stays
  </text>
  
  <!-- Gradients -->
  <defs>
    <linearGradient id="gradient1" x1="0%" y1="0%" x2="100%" y2="100%">
      <stop offset="0%" style="stop-color:#3B82F6;stop-opacity:1" />
      <stop offset="50%" style="stop-color:#8B5CF6;stop-opacity:1" />
      <stop offset="100%" style="stop-color:#1E40AF;stop-opacity:1" />
    </linearGradient>
  </defs>
</svg>
