<svg width="27" height="27" viewBox="0 0 27 27" fill="none" xmlns="http://www.w3.org/2000/svg"><path fill-rule="evenodd" clip-rule="evenodd" d="M.7 7.86C0 9.142 0 10.687 0 13.776v2.054c0 5.266 0 7.899 1.582 9.535C3.163 27 5.709 27 10.8 27h5.4c5.091 0 7.637 0 9.218-1.636S27 21.094 27 15.829v-2.054c0-3.09 0-4.634-.7-5.914-.702-1.28-1.982-2.076-4.543-3.665l-2.7-1.676C16.349.84 14.996 0 13.5 0s-2.85.84-5.557 2.52l-2.7 1.676C2.683 5.786 1.402 6.58.701 7.861m9.353 10.227a1.012 1.012 0 1 0-1.206 1.626 7.8 7.8 0 0 0 4.653 1.55c1.735 0 3.34-.577 4.653-1.55a1.012 1.012 0 1 0-1.206-1.626 5.76 5.76 0 0 1-3.447 1.15 5.76 5.76 0 0 1-3.447-1.15" fill="#fff"/></svg>